<svg width="28" height="28" viewBox="0 0 28 28" fill="none" xmlns="http://www.w3.org/2000/svg">
<path d="M13.9999 18.8998C16.0618 18.8998 17.7333 17.2283 17.7333 15.1664C17.7333 13.1046 16.0618 11.4331 13.9999 11.4331C11.9381 11.4331 10.2666 13.1046 10.2666 15.1664C10.2666 17.2283 11.9381 18.8998 13.9999 18.8998Z" fill="#959B9D"/>
<path d="M10.5002 3.5L8.36516 5.83333H4.66683C3.3835 5.83333 2.3335 6.88333 2.3335 8.16667V22.1667C2.3335 23.45 3.3835 24.5 4.66683 24.5H23.3335C24.6168 24.5 25.6668 23.45 25.6668 22.1667V8.16667C25.6668 6.88333 24.6168 5.83333 23.3335 5.83333H19.6352L17.5002 3.5H10.5002ZM14.0002 21C10.7802 21 8.16683 18.3867 8.16683 15.1667C8.16683 11.9467 10.7802 9.33333 14.0002 9.33333C17.2202 9.33333 19.8335 11.9467 19.8335 15.1667C19.8335 18.3867 17.2202 21 14.0002 21Z" fill="#959B9D"/>
</svg>
