<svg width="20" height="20" viewBox="0 0 20 20" fill="none" xmlns="http://www.w3.org/2000/svg">
<path d="M10.0007 13.5C11.4734 13.5 12.6673 12.3061 12.6673 10.8333C12.6673 9.36053 11.4734 8.16663 10.0007 8.16663C8.52789 8.16663 7.33398 9.36053 7.33398 10.8333C7.33398 12.3061 8.52789 13.5 10.0007 13.5Z" fill="white"/>
<path d="M7.50033 2.5L5.97533 4.16667H3.33366C2.41699 4.16667 1.66699 4.91667 1.66699 5.83333V15.8333C1.66699 16.75 2.41699 17.5 3.33366 17.5H16.667C17.5837 17.5 18.3337 16.75 18.3337 15.8333V5.83333C18.3337 4.91667 17.5837 4.16667 16.667 4.16667H14.0253L12.5003 2.5H7.50033ZM10.0003 15C7.70033 15 5.83366 13.1333 5.83366 10.8333C5.83366 8.53333 7.70033 6.66667 10.0003 6.66667C12.3003 6.66667 14.167 8.53333 14.167 10.8333C14.167 13.1333 12.3003 15 10.0003 15Z" fill="white"/>
</svg>
