<svg width="24" height="24" viewBox="0 0 24 24" fill="none" xmlns="http://www.w3.org/2000/svg">
<path d="M4 18.5455H6.90909V9.81818H4V18.5455ZM20 10.5455C20 9.74545 19.3455 9.09091 18.5455 9.09091H13.9564L14.6473 5.76727L14.6691 5.53455C14.6691 5.23636 14.5455 4.96 14.3491 4.76364L13.5782 4L8.79273 8.79273C8.52364 9.05455 8.36364 9.41818 8.36364 9.81818V17.0909C8.36364 17.8909 9.01818 18.5455 9.81818 18.5455H16.3636C16.9673 18.5455 17.4836 18.1818 17.7018 17.6582L19.8982 12.5309C19.9636 12.3636 20 12.1891 20 12V10.5455Z" fill="#88B1DD"/>
</svg>
