<svg width="32" height="32" viewBox="0 0 32 32" fill="none" xmlns="http://www.w3.org/2000/svg">
<path d="M19.8168 18.2921H19.0138L18.7292 18.0177C19.7253 16.8589 20.325 15.3546 20.325 13.7181C20.325 10.069 17.3671 7.11111 13.718 7.11111C10.069 7.11111 7.11108 10.069 7.11108 13.7181C7.11108 17.3671 10.069 20.325 13.718 20.325C15.3545 20.325 16.8589 19.7253 18.0176 18.7292L18.2921 19.0138V19.8168L23.3743 24.8889L24.8889 23.3744L19.8168 18.2921V18.2921ZM13.718 18.2921C11.1871 18.2921 9.14399 16.249 9.14399 13.7181C9.14399 11.1871 11.1871 9.14402 13.718 9.14402C16.249 9.14402 18.2921 11.1871 18.2921 13.7181C18.2921 16.249 16.249 18.2921 13.718 18.2921Z" fill="#303030"/>
</svg>
